<?xml version="1.0" encoding="UTF-8" standalone="no"?>
<!-- Created with Inkscape (http://www.inkscape.org/) -->
<svg
   xmlns:dc="http://purl.org/dc/elements/1.1/"
   xmlns:cc="http://web.resource.org/cc/"
   xmlns:rdf="http://www.w3.org/1999/02/22-rdf-syntax-ns#"
   xmlns:svg="http://www.w3.org/2000/svg"
   xmlns="http://www.w3.org/2000/svg"
   xmlns:sodipodi="http://inkscape.sourceforge.net/DTD/sodipodi-0.dtd"
   xmlns:inkscape="http://www.inkscape.org/namespaces/inkscape"
   version="1.0"
   width="2150"
   height="1500"
   id="svg2"
   sodipodi:version="0.32"
   inkscape:version="0.43"
   sodipodi:docname="commonp4.svg"
   sodipodi:docbase="C:\Documents and Settings\dpz\Desktop">
  <metadata
     id="metadata48">
    <rdf:RDF>
      <cc:Work
         rdf:about="">
        <dc:format>image/svg+xml</dc:format>
        <dc:type
           rdf:resource="http://purl.org/dc/dcmitype/StillImage" />
      </cc:Work>
    </rdf:RDF>
  </metadata>
  <sodipodi:namedview
     inkscape:window-height="994"
     inkscape:window-width="1680"
     inkscape:pageshadow="2"
     inkscape:pageopacity="0.0"
     borderopacity="1.0"
     bordercolor="#666666"
     pagecolor="#ffffff"
     id="base"
     showguides="false"
     inkscape:guide-bbox="true"
     inkscape:zoom="0.25"
     inkscape:cx="115.3486"
     inkscape:cy="768.45455"
     inkscape:window-x="-4"
     inkscape:window-y="-4"
     inkscape:current-layer="svg2">
    <sodipodi:guide
       orientation="horizontal"
       position="543.05151"
       id="guide1347" />
    <sodipodi:guide
       orientation="vertical"
       position="1930.3784"
       id="guide1349" />
    <sodipodi:guide
       orientation="horizontal"
       position="-192"
       id="guide4163" />
    <sodipodi:guide
       orientation="horizontal"
       position="-232"
       id="guide4165" />
    <sodipodi:guide
       orientation="vertical"
       position="1560"
       id="guide4207" />
  </sodipodi:namedview>
  <defs
     id="defs4" />
  <rect
     width="1918.1243"
     height="1077.3506"
     x="64.106567"
     y="360.66843"
     style="fill:#fe3000;fill-opacity:1;stroke:#000000;stroke-width:2.5;stroke-miterlimit:4;stroke-dasharray:none;stroke-opacity:1"
     id="rect14276" />
  <rect
     width="1277.3536"
     height="717.35364"
     x="704.87878"
     y="360.66696"
     style="fill:#fe6a15;fill-opacity:1;stroke:#000000;stroke-width:2.5;stroke-miterlimit:4;stroke-dasharray:none;stroke-opacity:1"
     id="rect12504" />
  <rect
     width="849.12567"
     height="477.12567"
     x="1132.9927"
     y="360.78085"
     style="fill:#ffa600;fill-opacity:1;stroke:#000000;stroke-width:2.5;stroke-miterlimit:4;stroke-dasharray:none;stroke-opacity:1"
     id="rect3646" />
  <rect
     width="765.26276"
     height="573.34985"
     x="1216.9628"
     y="360.70688"
     style="opacity:1;fill:#ffc400;fill-opacity:1;stroke:#000000;stroke-width:2.5;stroke-miterlimit:4;stroke-dasharray:none;stroke-opacity:1"
     id="rect4533" />
  <path
     transform="matrix(9.009926,0,0,9.009926,3021.853,-7209.523)"
     style="font-size:4.43954802px;font-style:normal;font-variant:normal;font-weight:normal;font-stretch:normal;text-align:start;line-height:125%;writing-mode:lr-tb;text-anchor:start;font-family:Myriad Pro"
     d="M -324.95227,955.4684 L -324.57491,955.4684 L -324.57491,952.58269 L -324.90787,952.58269 L -325.53829,952.9201 L -325.46281,953.21755 L -324.96115,952.94673 L -324.95227,952.94673 L -324.95227,955.4684 M -322.59632,955.51723 C -321.96591,955.51723 -321.59743,954.97561 -321.59743,953.99447 C -321.59743,953.07548 -321.94815,952.53386 -322.55193,952.53386 C -323.13795,952.53386 -323.55971,953.06216 -323.55971,954.03442 C -323.55083,954.98892 -323.16459,955.51723 -322.60076,955.51723 L -322.59632,955.51723 M -322.583,955.21534 C -322.94261,955.21534 -323.17346,954.76251 -323.16459,954.01223 C -323.16459,953.28858 -322.93373,952.83574 -322.57857,952.83574 C -322.17013,952.83574 -321.99254,953.3019 -321.99254,954.01223 C -321.99254,954.74919 -322.18345,955.21534 -322.57857,955.21534 L -322.583,955.21534 M -320.2759,952.53386 C -320.782,952.53386 -321.16825,952.84462 -321.16825,953.3019 C -321.16825,953.55051 -321.03062,953.79913 -320.70653,953.95007 L -320.70653,953.96339 C -321.05726,954.11433 -321.2748,954.37627 -321.2748,954.74031 C -321.2748,955.16207 -320.91075,955.51723 -320.30697,955.51723 C -319.75647,955.51723 -319.32583,955.18427 -319.32583,954.67816 C -319.32583,954.33187 -319.54781,954.07438 -319.90741,953.93231 L -319.90741,953.91899 C -319.55225,953.75473 -319.42794,953.48836 -319.42794,953.24418 C -319.42794,952.88014 -319.71207,952.53386 -320.27146,952.53386 L -320.2759,952.53386 M -320.30253,955.2331 C -320.66658,955.2331 -320.88855,954.97561 -320.87524,954.68704 C -320.87524,954.41178 -320.69321,954.18537 -320.35581,954.0877 C -319.96513,954.19869 -319.72095,954.37183 -319.72095,954.71811 C -319.72095,955.01556 -319.94737,955.2331 -320.29809,955.2331 L -320.30253,955.2331 M -320.28922,952.81355 C -319.94293,952.81355 -319.8053,953.05328 -319.8053,953.28414 C -319.8053,953.54607 -319.99621,953.72365 -320.24482,953.80801 C -320.57779,953.71922 -320.79976,953.56383 -320.79532,953.27526 C -320.79532,953.02665 -320.61774,952.81355 -320.29365,952.81355 L -320.28922,952.81355 M -318.03538,955.51723 C -317.40497,955.51723 -317.03648,954.97561 -317.03648,953.99447 C -317.03648,953.07548 -317.38721,952.53386 -317.99099,952.53386 C -318.57701,952.53386 -318.99876,953.06216 -318.99876,954.03442 C -318.98988,954.98892 -318.60364,955.51723 -318.03982,955.51723 L -318.03538,955.51723 M -318.02206,955.21534 C -318.38167,955.21534 -318.61252,954.76251 -318.60364,954.01223 C -318.60364,953.28858 -318.37279,952.83574 -318.01762,952.83574 C -317.60919,952.83574 -317.4316,953.3019 -317.4316,954.01223 C -317.4316,954.74919 -317.6225,955.21534 -318.01762,955.21534 L -318.02206,955.21534 M -316.55403,956.34743 L -316.16335,956.34743 L -316.16335,955.17983 L -316.15447,955.17983 C -316.02572,955.39292 -315.78155,955.51723 -315.49298,955.51723 C -314.99131,955.51723 -314.51628,955.13543 -314.51628,954.36295 C -314.51628,953.71034 -314.90696,953.27082 -315.43082,953.27082 C -315.77711,953.27082 -316.0346,953.42177 -316.18999,953.68814 L -316.19887,953.68814 L -316.22106,953.31966 L -316.57179,953.31966 C -316.55847,953.52387 -316.55403,953.74585 -316.55403,954.0211 L -316.55403,956.34743 M -316.16335,954.22088 C -316.16335,954.17205 -316.15003,954.11433 -316.14115,954.0655 C -316.06568,953.76805 -315.81262,953.58159 -315.54625,953.58159 C -315.13337,953.58159 -314.9114,953.95007 -314.9114,954.38071 C -314.9114,954.8735 -315.15113,955.2109 -315.56401,955.2109 C -315.83926,955.2109 -316.079,955.02444 -316.14559,954.75363 C -316.15891,954.70479 -316.16335,954.64708 -316.16335,954.59381 L -316.16335,954.22088"
     id="flowRoot3182" />
  <path
     transform="matrix(9.009926,0,0,9.009926,3666.22,-7569.941)"
     style="font-size:4.43954802px;font-style:normal;font-variant:normal;font-weight:normal;font-stretch:normal;text-align:start;line-height:125%;writing-mode:lr-tb;text-anchor:start;font-family:Myriad Pro"
     d="M -325.74695,952.58269 L -325.74695,952.90678 L -324.33517,952.90678 L -324.33517,952.91566 L -325.58268,955.4684 L -325.18312,955.4684 L -323.92673,952.84018 L -323.92673,952.58269 L -325.74695,952.58269 M -321.67734,955.4684 L -321.67734,955.14431 L -322.96925,955.14431 L -322.96925,955.13543 L -322.74283,954.92233 C -322.13461,954.33631 -321.74837,953.90568 -321.74837,953.37293 C -321.74837,952.96005 -322.0103,952.53386 -322.6274,952.53386 C -322.96037,952.53386 -323.24894,952.6626 -323.44428,952.82687 L -323.31997,953.10212 C -323.18678,952.99113 -322.96925,952.85794 -322.70731,952.85794 C -322.27668,952.85794 -322.13905,953.12876 -322.13905,953.42177 C -322.13905,953.85684 -322.47646,954.22976 -323.21342,954.93121 L -323.51975,955.22866 L -323.51975,955.4684 L -321.67734,955.4684 M -320.31585,955.51723 C -319.68544,955.51723 -319.31695,954.97561 -319.31695,953.99447 C -319.31695,953.07548 -319.66768,952.53386 -320.27146,952.53386 C -320.85748,952.53386 -321.27923,953.06216 -321.27923,954.03442 C -321.27036,954.98892 -320.88411,955.51723 -320.32029,955.51723 L -320.31585,955.51723 M -320.30253,955.21534 C -320.66214,955.21534 -320.89299,954.76251 -320.88411,954.01223 C -320.88411,953.28858 -320.65326,952.83574 -320.29809,952.83574 C -319.88966,952.83574 -319.71207,953.3019 -319.71207,954.01223 C -319.71207,954.74919 -319.90298,955.21534 -320.29809,955.21534 L -320.30253,955.21534 M -318.8345,956.34743 L -318.44382,956.34743 L -318.44382,955.17983 L -318.43494,955.17983 C -318.30619,955.39292 -318.06202,955.51723 -317.77345,955.51723 C -317.27178,955.51723 -316.79675,955.13543 -316.79675,954.36295 C -316.79675,953.71034 -317.18743,953.27082 -317.71129,953.27082 C -318.05758,953.27082 -318.31507,953.42177 -318.47046,953.68814 L -318.47934,953.68814 L -318.50153,953.31966 L -318.85226,953.31966 C -318.83894,953.52387 -318.8345,953.74585 -318.8345,954.0211 L -318.8345,956.34743 M -318.44382,954.22088 C -318.44382,954.17205 -318.4305,954.11433 -318.42162,954.0655 C -318.34615,953.76805 -318.0931,953.58159 -317.82672,953.58159 C -317.41385,953.58159 -317.19187,953.95007 -317.19187,954.38071 C -317.19187,954.8735 -317.4316,955.2109 -317.84448,955.2109 C -318.11973,955.2109 -318.35947,955.02444 -318.42606,954.75363 C -318.43938,954.70479 -318.44382,954.64708 -318.44382,954.59381 L -318.44382,954.22088"
     id="flowRoot4063" />
  <path
     transform="matrix(0,-9.009926,9.009926,0,-7424.015,-2124.737)"
     style="font-size:4.43954802px;font-style:normal;font-variant:normal;font-weight:normal;font-stretch:normal;text-align:start;line-height:125%;writing-mode:lr-tb;text-anchor:start;font-family:Myriad Pro"
     d="M -324.22418,955.4684 L -324.22418,954.67816 L -323.82018,954.67816 L -323.82018,954.37627 L -324.22418,954.37627 L -324.22418,952.58269 L -324.64594,952.58269 L -325.93341,954.4251 L -325.93341,954.67816 L -324.59266,954.67816 L -324.59266,955.4684 L -324.22418,955.4684 M -325.53829,954.37627 L -325.53829,954.36739 L -324.8324,953.38625 C -324.75249,953.25306 -324.68145,953.12875 -324.59266,952.96005 L -324.57934,952.96005 C -324.58822,953.111 -324.59266,953.26194 -324.59266,953.41289 L -324.59266,954.37627 L -325.53829,954.37627 M -322.55637,952.53386 C -323.06248,952.53386 -323.44872,952.84462 -323.44872,953.3019 C -323.44872,953.55051 -323.31109,953.79913 -322.987,953.95007 L -322.987,953.96339 C -323.33773,954.11433 -323.55527,954.37627 -323.55527,954.74031 C -323.55527,955.16207 -323.19122,955.51723 -322.58744,955.51723 C -322.03694,955.51723 -321.6063,955.18427 -321.6063,954.67816 C -321.6063,954.33187 -321.82828,954.07438 -322.18789,953.93231 L -322.18789,953.91899 C -321.83272,953.75473 -321.70841,953.48836 -321.70841,953.24418 C -321.70841,952.88014 -321.99255,952.53386 -322.55193,952.53386 L -322.55637,952.53386 M -322.583,955.2331 C -322.94705,955.2331 -323.16903,954.97561 -323.15571,954.68704 C -323.15571,954.41178 -322.97368,954.18537 -322.63628,954.0877 C -322.2456,954.19869 -322.00142,954.37183 -322.00142,954.71811 C -322.00142,955.01556 -322.22784,955.2331 -322.57857,955.2331 L -322.583,955.2331 M -322.56969,952.81355 C -322.2234,952.81355 -322.08578,953.05328 -322.08578,953.28414 C -322.08578,953.54607 -322.27668,953.72365 -322.52529,953.80801 C -322.85826,953.71922 -323.08023,953.56383 -323.07579,953.27526 C -323.07579,953.02665 -322.89821,952.81355 -322.57413,952.81355 L -322.56969,952.81355 M -320.31585,955.51723 C -319.68544,955.51723 -319.31695,954.97561 -319.31695,953.99447 C -319.31695,953.07548 -319.66768,952.53386 -320.27146,952.53386 C -320.85748,952.53386 -321.27923,953.06216 -321.27923,954.03442 C -321.27036,954.98892 -320.88411,955.51723 -320.32029,955.51723 L -320.31585,955.51723 M -320.30253,955.21534 C -320.66214,955.21534 -320.89299,954.76251 -320.88411,954.01223 C -320.88411,953.28858 -320.65326,952.83574 -320.29809,952.83574 C -319.88966,952.83574 -319.71207,953.3019 -319.71207,954.01223 C -319.71207,954.74919 -319.90298,955.21534 -320.29809,955.21534 L -320.30253,955.21534 M -318.8345,956.34743 L -318.44382,956.34743 L -318.44382,955.17983 L -318.43494,955.17983 C -318.30619,955.39292 -318.06202,955.51723 -317.77345,955.51723 C -317.27178,955.51723 -316.79675,955.13543 -316.79675,954.36295 C -316.79675,953.71034 -317.18743,953.27082 -317.71129,953.27082 C -318.05758,953.27082 -318.31507,953.42177 -318.47046,953.68814 L -318.47934,953.68814 L -318.50153,953.31966 L -318.85226,953.31966 C -318.83894,953.52387 -318.8345,953.74585 -318.8345,954.0211 L -318.8345,956.34743 M -318.44382,954.22088 C -318.44382,954.17205 -318.4305,954.11433 -318.42162,954.0655 C -318.34615,953.76805 -318.0931,953.58159 -317.82672,953.58159 C -317.41385,953.58159 -317.19187,953.95007 -317.19187,954.38071 C -317.19187,954.8735 -317.4316,955.2109 -317.84448,955.2109 C -318.11973,955.2109 -318.35947,955.02444 -318.42606,954.75363 C -318.43938,954.70479 -318.44382,954.64708 -318.44382,954.59381 L -318.44382,954.22088"
     id="flowRoot4071" />
  <path
     transform="matrix(9.009926,0,0,9.009926,4180.853,-7711.325)"
     style="font-size:4.43954802px;font-style:normal;font-variant:normal;font-weight:normal;font-stretch:normal;text-align:start;line-height:125%;writing-mode:lr-tb;text-anchor:start;font-family:Myriad Pro"
     d="M -324.07768,952.58269 L -325.45838,952.58269 L -325.64484,953.96783 C -325.53829,953.95007 -325.40954,953.93675 -325.24084,953.93675 C -324.66814,953.93675 -324.41508,954.20313 -324.41508,954.57161 C -324.41064,954.96229 -324.73029,955.20202 -325.09433,955.20202 C -325.3607,955.20202 -325.596,955.11323 -325.71587,955.0422 L -325.81354,955.33965 C -325.67147,955.42844 -325.40954,955.51723 -325.09433,955.51723 C -324.46836,955.51723 -324.01996,955.09547 -324.01996,954.53165 C -324.01996,954.16761 -324.20642,953.91455 -324.43284,953.79025 C -324.61042,953.6837 -324.82796,953.63486 -325.05438,953.63486 C -325.16093,953.63486 -325.22308,953.64374 -325.28967,953.65262 L -325.17868,952.91122 L -324.07768,952.91122 L -324.07768,952.58269 M -323.46647,952.58269 L -323.46647,952.90678 L -322.0547,952.90678 L -322.0547,952.91566 L -323.30221,955.4684 L -322.90265,955.4684 L -321.64626,952.84018 L -321.64626,952.58269 L -323.46647,952.58269 M -319.59221,952.5383 C -319.66324,952.5383 -319.76091,952.54273 -319.87634,952.56049 C -320.24038,952.60489 -320.56003,952.75139 -320.79976,952.98669 C -321.08833,953.27082 -321.28811,953.71922 -321.28811,954.28748 C -321.28811,955.03776 -320.88411,955.51723 -320.27146,955.51723 C -319.66768,955.51723 -319.30808,955.02888 -319.30808,954.49614 C -319.30808,953.93675 -319.66768,953.56383 -320.17823,953.56383 C -320.49787,953.56383 -320.74205,953.71478 -320.87968,953.90124 L -320.88855,953.90124 C -320.82196,953.42177 -320.50231,952.97781 -319.88522,952.88014 C -319.77423,952.86238 -319.67212,952.8535 -319.59221,952.85794 L -319.59221,952.5383 M -320.26702,955.21534 C -320.67546,955.21534 -320.89743,954.86018 -320.90187,954.38515 C -320.90187,954.31411 -320.88411,954.26084 -320.86192,954.21644 C -320.75537,954.00335 -320.53339,953.86128 -320.29809,953.86128 C -319.93849,953.86128 -319.7032,954.1099 -319.7032,954.52277 C -319.7032,954.93565 -319.92961,955.21534 -320.26258,955.21534 L -320.26702,955.21534 M -318.8345,956.34743 L -318.44382,956.34743 L -318.44382,955.17983 L -318.43494,955.17983 C -318.30619,955.39292 -318.06202,955.51723 -317.77345,955.51723 C -317.27178,955.51723 -316.79675,955.13543 -316.79675,954.36295 C -316.79675,953.71034 -317.18743,953.27082 -317.71129,953.27082 C -318.05758,953.27082 -318.31507,953.42177 -318.47046,953.68814 L -318.47934,953.68814 L -318.50153,953.31966 L -318.85226,953.31966 C -318.83894,953.52387 -318.8345,953.74585 -318.8345,954.0211 L -318.8345,956.34743 M -318.44382,954.22088 C -318.44382,954.17205 -318.4305,954.11433 -318.42162,954.0655 C -318.34615,953.76805 -318.0931,953.58159 -317.82672,953.58159 C -317.41385,953.58159 -317.19187,953.95007 -317.19187,954.38071 C -317.19187,954.8735 -317.4316,955.2109 -317.84448,955.2109 C -318.11973,955.2109 -318.35947,955.02444 -318.42606,954.75363 C -318.43938,954.70479 -318.44382,954.64708 -318.44382,954.59381 L -318.44382,954.22088"
     id="flowRoot4087" />
  <path
     style="fill:none;fill-opacity:0.75;fill-rule:evenodd;stroke:#000000;stroke-width:2.5;stroke-linecap:butt;stroke-linejoin:miter;stroke-miterlimit:4;stroke-dasharray:none;stroke-opacity:1"
     d="M 64.090366,308.83003 L 64.090366,357.94893"
     id="path4097" />
  <path
     style="fill:none;fill-opacity:0.75;fill-rule:evenodd;stroke:#000000;stroke-width:2.5;stroke-linecap:butt;stroke-linejoin:miter;stroke-miterlimit:4;stroke-dasharray:none;stroke-opacity:1"
     d="M 704.72404,308.82013 L 704.72404,357.93903"
     id="path4099" />
  <path
     style="fill:none;fill-opacity:0.75;fill-rule:evenodd;stroke:#000000;stroke-width:2.5;stroke-linecap:butt;stroke-linejoin:miter;stroke-miterlimit:4;stroke-dasharray:none;stroke-opacity:1"
     d="M 1132.9191,308.80373 L 1132.9191,357.92263"
     id="path4101" />
  <path
     style="fill:none;fill-opacity:0.75;fill-rule:evenodd;stroke:#000000;stroke-width:2.5;stroke-linecap:butt;stroke-linejoin:miter;stroke-miterlimit:4;stroke-dasharray:none;stroke-opacity:1"
     d="M 1216.8021,308.76473 L 1216.8021,357.88363"
     id="path4103" />
  <path
     style="fill:none;fill-opacity:0.75;fill-rule:evenodd;stroke:#000000;stroke-width:2.5;stroke-linecap:butt;stroke-linejoin:miter;stroke-miterlimit:4;stroke-dasharray:none;stroke-opacity:1"
     d="M 1982.2395,308.74963 L 1982.2395,357.86853"
     id="path4105" />
  <path
     style="fill:none;fill-opacity:0.75;fill-rule:evenodd;stroke:#000000;stroke-width:2.5;stroke-linecap:butt;stroke-linejoin:miter;stroke-miterlimit:4;stroke-dasharray:none;stroke-opacity:1"
     d="M 2034.0665,360.60673 L 1984.9475,360.60673"
     id="path4107" />
  <path
     style="fill:none;fill-opacity:0.75;fill-rule:evenodd;stroke:#000000;stroke-width:2.5;stroke-linecap:butt;stroke-linejoin:miter;stroke-miterlimit:4;stroke-dasharray:none;stroke-opacity:1"
     d="M 2033.8673,837.78333 L 1984.7483,837.78333"
     id="path4115" />
  <path
     style="fill:none;fill-opacity:0.75;fill-rule:evenodd;stroke:#000000;stroke-width:2.5;stroke-linecap:butt;stroke-linejoin:miter;stroke-miterlimit:4;stroke-dasharray:none;stroke-opacity:1"
     d="M 2033.981,934.01073 L 1984.862,934.01073"
     id="path4117" />
  <path
     style="fill:none;fill-opacity:0.75;fill-rule:evenodd;stroke:#000000;stroke-width:2.5;stroke-linecap:butt;stroke-linejoin:miter;stroke-miterlimit:4;stroke-dasharray:none;stroke-opacity:1"
     d="M 2033.8504,1077.8802 L 1984.7314,1077.8802"
     id="path4119" />
  <path
     style="fill:none;fill-opacity:0.75;fill-rule:evenodd;stroke:#000000;stroke-width:2.5;stroke-linecap:butt;stroke-linejoin:miter;stroke-miterlimit:4;stroke-dasharray:none;stroke-opacity:1"
     d="M 2033.8842,1438.0978 L 1984.7652,1438.0978"
     id="path4121" />
  <path
     transform="matrix(9.009926,0,0,9.009926,2954.853,-8313.325)"
     style="font-size:4.43954802px;font-style:normal;font-variant:normal;font-weight:normal;font-stretch:normal;text-align:start;line-height:125%;writing-mode:lr-tb;text-anchor:start;font-family:Myriad Pro"
     d="M -324.95227,955.4684 L -324.57491,955.4684 L -324.57491,952.58269 L -324.90787,952.58269 L -325.53829,952.9201 L -325.46281,953.21755 L -324.96115,952.94673 L -324.95227,952.94673 L -324.95227,955.4684 M -323.29333,955.51279 C -323.20454,955.51723 -323.07579,955.50835 -322.93373,955.49059 C -322.62296,955.45508 -322.31663,955.31745 -322.09465,955.10435 C -321.81052,954.8291 -321.59743,954.38515 -321.59743,953.75029 C -321.59743,953.00889 -321.96147,952.53386 -322.55193,952.53386 C -323.14239,952.53386 -323.54195,953.01333 -323.54195,953.55495 C -323.54195,954.05218 -323.20898,954.44286 -322.68955,954.44286 C -322.39654,954.44286 -322.16569,954.32743 -322.00586,954.13209 L -321.99254,954.13209 C -322.04582,954.47394 -322.18345,954.72255 -322.37435,954.90013 C -322.53861,955.05552 -322.75171,955.14875 -322.97812,955.17539 C -323.11131,955.19314 -323.20898,955.19758 -323.29333,955.19314 L -323.29333,955.51279 M -322.583,952.83131 C -322.17457,952.83131 -321.98811,953.20423 -321.99254,953.70146 C -321.99254,953.76361 -322.00586,953.80801 -322.02362,953.84352 C -322.13017,954.01666 -322.33439,954.14541 -322.59632,954.14541 C -322.93373,954.14541 -323.15127,953.89236 -323.15127,953.53275 C -323.15127,953.12432 -322.91597,952.83131 -322.58744,952.83131 L -322.583,952.83131 M -319.39687,955.4684 L -319.39687,955.14431 L -320.68877,955.14431 L -320.68877,955.13543 L -320.46236,954.92233 C -319.85414,954.33631 -319.4679,953.90568 -319.4679,953.37293 C -319.4679,952.96005 -319.72983,952.53386 -320.34693,952.53386 C -320.6799,952.53386 -320.96847,952.6626 -321.16381,952.82687 L -321.0395,953.10212 C -320.90631,952.99113 -320.68877,952.85794 -320.42684,952.85794 C -319.99621,952.85794 -319.85858,953.12876 -319.85858,953.42177 C -319.85858,953.85684 -320.19599,954.22976 -320.93295,954.93121 L -321.23928,955.22866 L -321.23928,955.4684 L -319.39687,955.4684 M -318.03538,955.51723 C -317.40497,955.51723 -317.03648,954.97561 -317.03648,953.99447 C -317.03648,953.07548 -317.38721,952.53386 -317.99099,952.53386 C -318.57701,952.53386 -318.99876,953.06216 -318.99876,954.03442 C -318.98988,954.98892 -318.60364,955.51723 -318.03982,955.51723 L -318.03538,955.51723 M -318.02206,955.21534 C -318.38167,955.21534 -318.61252,954.76251 -318.60364,954.01223 C -318.60364,953.28858 -318.37279,952.83574 -318.01762,952.83574 C -317.60919,952.83574 -317.4316,953.3019 -317.4316,954.01223 C -317.4316,954.74919 -317.6225,955.21534 -318.01762,955.21534 L -318.02206,955.21534"
     id="flowRoot4123" />
  <path
     transform="matrix(9.009926,0,0,9.009926,3593.933,-8313.325)"
     style="font-size:4.43954802px;font-style:normal;font-variant:normal;font-weight:normal;font-stretch:normal;text-align:start;line-height:125%;writing-mode:lr-tb;text-anchor:start;font-family:Myriad Pro"
     d="M -324.95227,955.4684 L -324.57491,955.4684 L -324.57491,952.58269 L -324.90787,952.58269 L -325.53829,952.9201 L -325.46281,953.21755 L -324.96115,952.94673 L -324.95227,952.94673 L -324.95227,955.4684 M -321.67734,955.4684 L -321.67734,955.14431 L -322.96925,955.14431 L -322.96925,955.13543 L -322.74283,954.92233 C -322.13461,954.33631 -321.74837,953.90568 -321.74837,953.37293 C -321.74837,952.96005 -322.0103,952.53386 -322.6274,952.53386 C -322.96037,952.53386 -323.24894,952.6626 -323.44428,952.82687 L -323.31997,953.10212 C -323.18678,952.99113 -322.96925,952.85794 -322.70731,952.85794 C -322.27668,952.85794 -322.13905,953.12876 -322.13905,953.42177 C -322.13905,953.85684 -322.47646,954.22976 -323.21342,954.93121 L -323.51975,955.22866 L -323.51975,955.4684 L -321.67734,955.4684 M -320.2759,952.53386 C -320.782,952.53386 -321.16825,952.84462 -321.16825,953.3019 C -321.16825,953.55051 -321.03062,953.79913 -320.70653,953.95007 L -320.70653,953.96339 C -321.05726,954.11433 -321.2748,954.37627 -321.2748,954.74031 C -321.2748,955.16207 -320.91075,955.51723 -320.30697,955.51723 C -319.75647,955.51723 -319.32583,955.18427 -319.32583,954.67816 C -319.32583,954.33187 -319.54781,954.07438 -319.90741,953.93231 L -319.90741,953.91899 C -319.55225,953.75473 -319.42794,953.48836 -319.42794,953.24418 C -319.42794,952.88014 -319.71207,952.53386 -320.27146,952.53386 L -320.2759,952.53386 M -320.30253,955.2331 C -320.66658,955.2331 -320.88855,954.97561 -320.87524,954.68704 C -320.87524,954.41178 -320.69321,954.18537 -320.35581,954.0877 C -319.96513,954.19869 -319.72095,954.37183 -319.72095,954.71811 C -319.72095,955.01556 -319.94737,955.2331 -320.29809,955.2331 L -320.30253,955.2331 M -320.28922,952.81355 C -319.94293,952.81355 -319.8053,953.05328 -319.8053,953.28414 C -319.8053,953.54607 -319.99621,953.72365 -320.24482,953.80801 C -320.57779,953.71922 -320.79976,953.56383 -320.79532,953.27526 C -320.79532,953.02665 -320.61774,952.81355 -320.29365,952.81355 L -320.28922,952.81355 M -318.03538,955.51723 C -317.40497,955.51723 -317.03648,954.97561 -317.03648,953.99447 C -317.03648,953.07548 -317.38721,952.53386 -317.99099,952.53386 C -318.57701,952.53386 -318.99876,953.06216 -318.99876,954.03442 C -318.98988,954.98892 -318.60364,955.51723 -318.03982,955.51723 L -318.03538,955.51723 M -318.02206,955.21534 C -318.38167,955.21534 -318.61252,954.76251 -318.60364,954.01223 C -318.60364,953.28858 -318.37279,952.83574 -318.01762,952.83574 C -317.60919,952.83574 -317.4316,953.3019 -317.4316,954.01223 C -317.4316,954.74919 -317.6225,955.21534 -318.01762,955.21534 L -318.02206,955.21534"
     id="flowRoot4131" />
  <path
     transform="matrix(9.009926,0,0,9.009926,4117.933,-8313.325)"
     style="font-size:4.43954802px;font-style:normal;font-variant:normal;font-weight:normal;font-stretch:normal;text-align:start;line-height:125%;writing-mode:lr-tb;text-anchor:start;font-family:Myriad Pro"
     d="M -325.74695,952.58269 L -325.74695,952.90678 L -324.33517,952.90678 L -324.33517,952.91566 L -325.58268,955.4684 L -325.18312,955.4684 L -323.92673,952.84018 L -323.92673,952.58269 L -325.74695,952.58269 M -321.87268,952.5383 C -321.94371,952.5383 -322.04138,952.54273 -322.15681,952.56049 C -322.52085,952.60489 -322.8405,952.75139 -323.08023,952.98669 C -323.3688,953.27082 -323.56858,953.71922 -323.56858,954.28748 C -323.56858,955.03776 -323.16459,955.51723 -322.55193,955.51723 C -321.94815,955.51723 -321.58855,955.02888 -321.58855,954.49614 C -321.58855,953.93675 -321.94815,953.56383 -322.4587,953.56383 C -322.77834,953.56383 -323.02252,953.71478 -323.16015,953.90124 L -323.16903,953.90124 C -323.10243,953.42177 -322.78278,952.97781 -322.16569,952.88014 C -322.0547,952.86238 -321.95259,952.8535 -321.87268,952.85794 L -321.87268,952.5383 M -322.54749,955.21534 C -322.95593,955.21534 -323.1779,954.86018 -323.18234,954.38515 C -323.18234,954.31411 -323.16459,954.26084 -323.14239,954.21644 C -323.03584,954.00335 -322.81386,953.86128 -322.57857,953.86128 C -322.21896,953.86128 -321.98367,954.1099 -321.98367,954.52277 C -321.98367,954.93565 -322.21008,955.21534 -322.54305,955.21534 L -322.54749,955.21534 M -320.2759,952.53386 C -320.782,952.53386 -321.16825,952.84462 -321.16825,953.3019 C -321.16825,953.55051 -321.03062,953.79913 -320.70653,953.95007 L -320.70653,953.96339 C -321.05726,954.11433 -321.2748,954.37627 -321.2748,954.74031 C -321.2748,955.16207 -320.91075,955.51723 -320.30697,955.51723 C -319.75647,955.51723 -319.32583,955.18427 -319.32583,954.67816 C -319.32583,954.33187 -319.54781,954.07438 -319.90741,953.93231 L -319.90741,953.91899 C -319.55225,953.75473 -319.42794,953.48836 -319.42794,953.24418 C -319.42794,952.88014 -319.71207,952.53386 -320.27146,952.53386 L -320.2759,952.53386 M -320.30253,955.2331 C -320.66658,955.2331 -320.88855,954.97561 -320.87524,954.68704 C -320.87524,954.41178 -320.69321,954.18537 -320.35581,954.0877 C -319.96513,954.19869 -319.72095,954.37183 -319.72095,954.71811 C -319.72095,955.01556 -319.94737,955.2331 -320.29809,955.2331 L -320.30253,955.2331 M -320.28922,952.81355 C -319.94293,952.81355 -319.8053,953.05328 -319.8053,953.28414 C -319.8053,953.54607 -319.99621,953.72365 -320.24482,953.80801 C -320.57779,953.71922 -320.79976,953.56383 -320.79532,953.27526 C -320.79532,953.02665 -320.61774,952.81355 -320.29365,952.81355 L -320.28922,952.81355"
     id="flowRoot4139" />
  <path
     transform="matrix(9.009926,0,0,9.009926,4037.933,-8313.325)"
     style="font-size:4.43954802px;font-style:normal;font-variant:normal;font-weight:normal;font-stretch:normal;text-align:start;line-height:125%;writing-mode:lr-tb;text-anchor:start;font-family:Myriad Pro"
     d="M -324.83684,952.53386 C -325.34295,952.53386 -325.72919,952.84462 -325.72919,953.3019 C -325.72919,953.55051 -325.59156,953.79913 -325.26747,953.95007 L -325.26747,953.96339 C -325.6182,954.11433 -325.83574,954.37627 -325.83574,954.74031 C -325.83574,955.16207 -325.47169,955.51723 -324.86792,955.51723 C -324.31741,955.51723 -323.88678,955.18427 -323.88678,954.67816 C -323.88678,954.33187 -324.10875,954.07438 -324.46836,953.93231 L -324.46836,953.91899 C -324.11319,953.75473 -323.98888,953.48836 -323.98888,953.24418 C -323.98888,952.88014 -324.27302,952.53386 -324.8324,952.53386 L -324.83684,952.53386 M -324.86348,955.2331 C -325.22752,955.2331 -325.4495,954.97561 -325.43618,954.68704 C -325.43618,954.41178 -325.25416,954.18537 -324.91675,954.0877 C -324.52607,954.19869 -324.28189,954.37183 -324.28189,954.71811 C -324.28189,955.01556 -324.50831,955.2331 -324.85904,955.2331 L -324.86348,955.2331 M -324.85016,952.81355 C -324.50387,952.81355 -324.36625,953.05328 -324.36625,953.28414 C -324.36625,953.54607 -324.55715,953.72365 -324.80576,953.80801 C -325.13873,953.71922 -325.36071,953.56383 -325.35627,953.27526 C -325.35627,953.02665 -325.17868,952.81355 -324.8546,952.81355 L -324.85016,952.81355 M -321.7972,952.58269 L -323.1779,952.58269 L -323.36437,953.96783 C -323.25782,953.95007 -323.12907,953.93675 -322.96037,953.93675 C -322.38767,953.93675 -322.13461,954.20313 -322.13461,954.57161 C -322.13017,954.96229 -322.44982,955.20202 -322.81386,955.20202 C -323.08023,955.20202 -323.31553,955.11323 -323.4354,955.0422 L -323.53307,955.33965 C -323.391,955.42844 -323.12907,955.51723 -322.81386,955.51723 C -322.18789,955.51723 -321.73949,955.09547 -321.73949,954.53165 C -321.73949,954.16761 -321.92595,953.91455 -322.15237,953.79025 C -322.32995,953.6837 -322.54749,953.63486 -322.77391,953.63486 C -322.88045,953.63486 -322.94261,953.64374 -323.0092,953.65262 L -322.89821,952.91122 L -321.7972,952.91122 L -321.7972,952.58269 M -319.39687,955.4684 L -319.39687,955.14431 L -320.68877,955.14431 L -320.68877,955.13543 L -320.46236,954.92233 C -319.85414,954.33631 -319.4679,953.90568 -319.4679,953.37293 C -319.4679,952.96005 -319.72983,952.53386 -320.34693,952.53386 C -320.6799,952.53386 -320.96847,952.6626 -321.16381,952.82687 L -321.0395,953.10212 C -320.90631,952.99113 -320.68877,952.85794 -320.42684,952.85794 C -319.99621,952.85794 -319.85858,953.12876 -319.85858,953.42177 C -319.85858,953.85684 -320.19599,954.22976 -320.93295,954.93121 L -321.23928,955.22866 L -321.23928,955.4684 L -319.39687,955.4684"
     id="flowRoot4147" />
  <path
     transform="matrix(9.009926,0,0,9.009926,4907.933,-8313.325)"
     style="font-size:4.43954802px;font-style:normal;font-variant:normal;font-weight:normal;font-stretch:normal;text-align:start;line-height:125%;writing-mode:lr-tb;text-anchor:start;font-family:Myriad Pro"
     d="M -324.87679,955.51723 C -324.24638,955.51723 -323.8779,954.97561 -323.8779,953.99447 C -323.8779,953.07548 -324.22862,952.53386 -324.8324,952.53386 C -325.41842,952.53386 -325.84018,953.06216 -325.84018,954.03442 C -325.8313,954.98892 -325.44506,955.51723 -324.88123,955.51723 L -324.87679,955.51723 M -324.86348,955.21534 C -325.22308,955.21534 -325.45394,954.76251 -325.44506,954.01223 C -325.44506,953.28858 -325.2142,952.83574 -324.85904,952.83574 C -324.4506,952.83574 -324.27302,953.3019 -324.27302,954.01223 C -324.27302,954.74919 -324.46392,955.21534 -324.85904,955.21534 L -324.86348,955.21534"
     id="flowRoot4155" />
  <path
     transform="matrix(9.009926,0,0,9.009926,4983.493,-8235.325)"
     style="font-size:4.43954802px;font-style:normal;font-variant:normal;font-weight:normal;font-stretch:normal;text-align:start;line-height:125%;writing-mode:lr-tb;text-anchor:start;font-family:Myriad Pro"
     d="M -324.87679,955.51723 C -324.24638,955.51723 -323.8779,954.97561 -323.8779,953.99447 C -323.8779,953.07548 -324.22862,952.53386 -324.8324,952.53386 C -325.41842,952.53386 -325.84018,953.06216 -325.84018,954.03442 C -325.8313,954.98892 -325.44506,955.51723 -324.88123,955.51723 L -324.87679,955.51723 M -324.86348,955.21534 C -325.22308,955.21534 -325.45394,954.76251 -325.44506,954.01223 C -325.44506,953.28858 -325.2142,952.83574 -324.85904,952.83574 C -324.4506,952.83574 -324.27302,953.3019 -324.27302,954.01223 C -324.27302,954.74919 -324.46392,955.21534 -324.85904,955.21534 L -324.86348,955.21534"
     id="flowRoot4167" />
  <path
     transform="matrix(9.009926,0,0,9.009926,4981.813,-7759.325)"
     style="font-size:4.43954802px;font-style:normal;font-variant:normal;font-weight:normal;font-stretch:normal;text-align:start;line-height:125%;writing-mode:lr-tb;text-anchor:start;font-family:Myriad Pro"
     d="M -324.22418,955.4684 L -324.22418,954.67816 L -323.82018,954.67816 L -323.82018,954.37627 L -324.22418,954.37627 L -324.22418,952.58269 L -324.64594,952.58269 L -325.93341,954.4251 L -325.93341,954.67816 L -324.59266,954.67816 L -324.59266,955.4684 L -324.22418,955.4684 M -325.53829,954.37627 L -325.53829,954.36739 L -324.8324,953.38625 C -324.75249,953.25306 -324.68145,953.12875 -324.59266,952.96005 L -324.57934,952.96005 C -324.58822,953.111 -324.59266,953.26194 -324.59266,953.41289 L -324.59266,954.37627 L -325.53829,954.37627 M -322.55637,952.53386 C -323.06248,952.53386 -323.44872,952.84462 -323.44872,953.3019 C -323.44872,953.55051 -323.31109,953.79913 -322.987,953.95007 L -322.987,953.96339 C -323.33773,954.11433 -323.55527,954.37627 -323.55527,954.74031 C -323.55527,955.16207 -323.19122,955.51723 -322.58744,955.51723 C -322.03694,955.51723 -321.6063,955.18427 -321.6063,954.67816 C -321.6063,954.33187 -321.82828,954.07438 -322.18789,953.93231 L -322.18789,953.91899 C -321.83272,953.75473 -321.70841,953.48836 -321.70841,953.24418 C -321.70841,952.88014 -321.99255,952.53386 -322.55193,952.53386 L -322.55637,952.53386 M -322.583,955.2331 C -322.94705,955.2331 -323.16903,954.97561 -323.15571,954.68704 C -323.15571,954.41178 -322.97368,954.18537 -322.63628,954.0877 C -322.2456,954.19869 -322.00142,954.37183 -322.00142,954.71811 C -322.00142,955.01556 -322.22784,955.2331 -322.57857,955.2331 L -322.583,955.2331 M -322.56969,952.81355 C -322.2234,952.81355 -322.08578,953.05328 -322.08578,953.28414 C -322.08578,953.54607 -322.27668,953.72365 -322.52529,953.80801 C -322.85826,953.71922 -323.08023,953.56383 -323.07579,953.27526 C -323.07579,953.02665 -322.89821,952.81355 -322.57413,952.81355 L -322.56969,952.81355 M -320.31585,955.51723 C -319.68544,955.51723 -319.31695,954.97561 -319.31695,953.99447 C -319.31695,953.07548 -319.66768,952.53386 -320.27146,952.53386 C -320.85748,952.53386 -321.27923,953.06216 -321.27923,954.03442 C -321.27036,954.98892 -320.88411,955.51723 -320.32029,955.51723 L -320.31585,955.51723 M -320.30253,955.21534 C -320.66214,955.21534 -320.89299,954.76251 -320.88411,954.01223 C -320.88411,953.28858 -320.65326,952.83574 -320.29809,952.83574 C -319.88966,952.83574 -319.71207,953.3019 -319.71207,954.01223 C -319.71207,954.74919 -319.90298,955.21534 -320.29809,955.21534 L -320.30253,955.21534"
     id="flowRoot4175" />
  <path
     transform="matrix(9.009926,0,0,9.009926,4981.933,-7667.325)"
     style="font-size:4.43954802px;font-style:normal;font-variant:normal;font-weight:normal;font-stretch:normal;text-align:start;line-height:125%;writing-mode:lr-tb;text-anchor:start;font-family:Myriad Pro"
     d="M -324.07768,952.58269 L -325.45838,952.58269 L -325.64484,953.96783 C -325.53829,953.95007 -325.40954,953.93675 -325.24084,953.93675 C -324.66814,953.93675 -324.41508,954.20313 -324.41508,954.57161 C -324.41064,954.96229 -324.73029,955.20202 -325.09433,955.20202 C -325.3607,955.20202 -325.596,955.11323 -325.71587,955.0422 L -325.81354,955.33965 C -325.67147,955.42844 -325.40954,955.51723 -325.09433,955.51723 C -324.46836,955.51723 -324.01996,955.09547 -324.01996,954.53165 C -324.01996,954.16761 -324.20642,953.91455 -324.43284,953.79025 C -324.61042,953.6837 -324.82796,953.63486 -325.05438,953.63486 C -325.16093,953.63486 -325.22308,953.64374 -325.28967,953.65262 L -325.17868,952.91122 L -324.07768,952.91122 L -324.07768,952.58269 M -323.46647,952.58269 L -323.46647,952.90678 L -322.0547,952.90678 L -322.0547,952.91566 L -323.30221,955.4684 L -322.90265,955.4684 L -321.64626,952.84018 L -321.64626,952.58269 L -323.46647,952.58269 M -319.59221,952.5383 C -319.66324,952.5383 -319.76091,952.54273 -319.87634,952.56049 C -320.24038,952.60489 -320.56003,952.75139 -320.79976,952.98669 C -321.08833,953.27082 -321.28811,953.71922 -321.28811,954.28748 C -321.28811,955.03776 -320.88411,955.51723 -320.27146,955.51723 C -319.66768,955.51723 -319.30808,955.02888 -319.30808,954.49614 C -319.30808,953.93675 -319.66768,953.56383 -320.17823,953.56383 C -320.49787,953.56383 -320.74205,953.71478 -320.87968,953.90124 L -320.88855,953.90124 C -320.82196,953.42177 -320.50231,952.97781 -319.88522,952.88014 C -319.77423,952.86238 -319.67212,952.8535 -319.59221,952.85794 L -319.59221,952.5383 M -320.26702,955.21534 C -320.67546,955.21534 -320.89743,954.86018 -320.90187,954.38515 C -320.90187,954.31411 -320.88411,954.26084 -320.86192,954.21644 C -320.75537,954.00335 -320.53339,953.86128 -320.29809,953.86128 C -319.93849,953.86128 -319.7032,954.1099 -319.7032,954.52277 C -319.7032,954.93565 -319.92961,955.21534 -320.26258,955.21534 L -320.26702,955.21534"
     id="flowRoot4183" />
  <path
     transform="matrix(9.009926,0,0,9.009926,4980.133,-7519.325)"
     style="font-size:4.43954802px;font-style:normal;font-variant:normal;font-weight:normal;font-stretch:normal;text-align:start;line-height:125%;writing-mode:lr-tb;text-anchor:start;font-family:Myriad Pro"
     d="M -325.74695,952.58269 L -325.74695,952.90678 L -324.33517,952.90678 L -324.33517,952.91566 L -325.58268,955.4684 L -325.18312,955.4684 L -323.92673,952.84018 L -323.92673,952.58269 L -325.74695,952.58269 M -321.67734,955.4684 L -321.67734,955.14431 L -322.96925,955.14431 L -322.96925,955.13543 L -322.74283,954.92233 C -322.13461,954.33631 -321.74837,953.90568 -321.74837,953.37293 C -321.74837,952.96005 -322.0103,952.53386 -322.6274,952.53386 C -322.96037,952.53386 -323.24894,952.6626 -323.44428,952.82687 L -323.31997,953.10212 C -323.18678,952.99113 -322.96925,952.85794 -322.70731,952.85794 C -322.27668,952.85794 -322.13905,953.12876 -322.13905,953.42177 C -322.13905,953.85684 -322.47646,954.22976 -323.21342,954.93121 L -323.51975,955.22866 L -323.51975,955.4684 L -321.67734,955.4684 M -320.31585,955.51723 C -319.68544,955.51723 -319.31695,954.97561 -319.31695,953.99447 C -319.31695,953.07548 -319.66768,952.53386 -320.27146,952.53386 C -320.85748,952.53386 -321.27923,953.06216 -321.27923,954.03442 C -321.27036,954.98892 -320.88411,955.51723 -320.32029,955.51723 L -320.31585,955.51723 M -320.30253,955.21534 C -320.66214,955.21534 -320.89299,954.76251 -320.88411,954.01223 C -320.88411,953.28858 -320.65326,952.83574 -320.29809,952.83574 C -319.88966,952.83574 -319.71207,953.3019 -319.71207,954.01223 C -319.71207,954.74919 -319.90298,955.21534 -320.29809,955.21534 L -320.30253,955.21534"
     id="flowRoot4191" />
  <path
     transform="matrix(9.009926,0,0,9.009926,4978.253,-7159.325)"
     style="font-size:4.43954802px;font-style:normal;font-variant:normal;font-weight:normal;font-stretch:normal;text-align:start;line-height:125%;writing-mode:lr-tb;text-anchor:start;font-family:Myriad Pro"
     d="M -324.95227,955.4684 L -324.57491,955.4684 L -324.57491,952.58269 L -324.90787,952.58269 L -325.53829,952.9201 L -325.46281,953.21755 L -324.96115,952.94673 L -324.95227,952.94673 L -324.95227,955.4684 M -322.59632,955.51723 C -321.96591,955.51723 -321.59743,954.97561 -321.59743,953.99447 C -321.59743,953.07548 -321.94815,952.53386 -322.55193,952.53386 C -323.13795,952.53386 -323.55971,953.06216 -323.55971,954.03442 C -323.55083,954.98892 -323.16459,955.51723 -322.60076,955.51723 L -322.59632,955.51723 M -322.583,955.21534 C -322.94261,955.21534 -323.17346,954.76251 -323.16459,954.01223 C -323.16459,953.28858 -322.93373,952.83574 -322.57857,952.83574 C -322.17013,952.83574 -321.99254,953.3019 -321.99254,954.01223 C -321.99254,954.74919 -322.18345,955.21534 -322.57857,955.21534 L -322.583,955.21534 M -320.2759,952.53386 C -320.782,952.53386 -321.16825,952.84462 -321.16825,953.3019 C -321.16825,953.55051 -321.03062,953.79913 -320.70653,953.95007 L -320.70653,953.96339 C -321.05726,954.11433 -321.2748,954.37627 -321.2748,954.74031 C -321.2748,955.16207 -320.91075,955.51723 -320.30697,955.51723 C -319.75647,955.51723 -319.32583,955.18427 -319.32583,954.67816 C -319.32583,954.33187 -319.54781,954.07438 -319.90741,953.93231 L -319.90741,953.91899 C -319.55225,953.75473 -319.42794,953.48836 -319.42794,953.24418 C -319.42794,952.88014 -319.71207,952.53386 -320.27146,952.53386 L -320.2759,952.53386 M -320.30253,955.2331 C -320.66658,955.2331 -320.88855,954.97561 -320.87524,954.68704 C -320.87524,954.41178 -320.69321,954.18537 -320.35581,954.0877 C -319.96513,954.19869 -319.72095,954.37183 -319.72095,954.71811 C -319.72095,955.01556 -319.94737,955.2331 -320.29809,955.2331 L -320.30253,955.2331 M -320.28922,952.81355 C -319.94293,952.81355 -319.8053,953.05328 -319.8053,953.28414 C -319.8053,953.54607 -319.99621,953.72365 -320.24482,953.80801 C -320.57779,953.71922 -320.79976,953.56383 -320.79532,953.27526 C -320.79532,953.02665 -320.61774,952.81355 -320.29365,952.81355 L -320.28922,952.81355 M -318.03538,955.51723 C -317.40497,955.51723 -317.03648,954.97561 -317.03648,953.99447 C -317.03648,953.07548 -317.38721,952.53386 -317.99099,952.53386 C -318.57701,952.53386 -318.99876,953.06216 -318.99876,954.03442 C -318.98988,954.98892 -318.60364,955.51723 -318.03982,955.51723 L -318.03538,955.51723 M -318.02206,955.21534 C -318.38167,955.21534 -318.61252,954.76251 -318.60364,954.01223 C -318.60364,953.28858 -318.37279,952.83574 -318.01762,952.83574 C -317.60919,952.83574 -317.4316,953.3019 -317.4316,954.01223 C -317.4316,954.74919 -317.6225,955.21534 -318.01762,955.21534 L -318.02206,955.21534"
     id="flowRoot4199" />
  <path
     transform="matrix(9.009926,0,0,9.009926,3384.866,-8511.23)"
     style="font-size:8.87909603px;font-style:normal;font-variant:normal;font-weight:bold;font-stretch:normal;text-align:start;line-height:125%;writing-mode:lr-tb;text-anchor:start;font-family:Myriad Pro Light"
     d="M -321.25856,957.89794 C -321.55157,958.02225 -322.01329,958.11104 -322.44836,958.11104 C -323.77135,958.11104 -324.53495,957.2764 -324.53495,955.9623 C -324.53495,954.52388 -323.65592,953.76028 -322.43948,953.76028 C -321.95113,953.76028 -321.55157,953.86683 -321.26744,953.99114 L -321.03659,953.12099 C -321.25856,953.00556 -321.76467,952.86349 -322.48388,952.86349 C -324.31297,952.86349 -325.68923,954.04441 -325.68923,956.01557 C -325.68923,957.83578 -324.53495,959.02558 -322.63482,959.02558 C -321.90674,959.02558 -321.33847,958.88352 -321.08098,958.75921 L -321.25856,957.89794 M -318.29392,959.03446 C -317.20179,959.03446 -316.08302,958.32413 -316.08302,956.73478 C -316.08302,955.42067 -316.94429,954.515 -318.23176,954.515 C -319.53699,954.515 -320.46929,955.38516 -320.46929,956.80581 C -320.46929,958.19983 -319.51923,959.03446 -318.30279,959.03446 L -318.29392,959.03446 M -318.27616,958.24422 C -318.92433,958.24422 -319.34165,957.61381 -319.34165,956.77917 C -319.34165,956.05997 -319.03088,955.30524 -318.2584,955.30524 C -317.51256,955.30524 -317.21067,956.0866 -317.21067,956.76142 C -317.21067,957.64044 -317.64574,958.24422 -318.26728,958.24422 L -318.27616,958.24422 M -315.18221,958.93679 L -314.11672,958.93679 L -314.11672,956.37961 C -314.11672,956.25531 -314.09896,956.131 -314.06344,956.01557 C -313.95689,955.72256 -313.68164,955.40291 -313.2732,955.40291 C -312.76709,955.40291 -312.52736,955.82911 -312.52736,956.43289 L -312.52736,958.93679 L -311.46187,958.93679 L -311.46187,956.3441 C -311.46187,956.21979 -311.44411,956.07772 -311.40859,955.98005 C -311.29316,955.66929 -311.01791,955.40291 -310.64499,955.40291 C -310.12112,955.40291 -309.87251,955.82911 -309.87251,956.54832 L -309.87251,958.93679 L -308.80702,958.93679 L -308.80702,956.38849 C -308.80702,955.00336 -309.5351,954.515 -310.24543,954.515 C -310.60947,954.515 -310.88473,954.6038 -311.13334,954.7725 C -311.32868,954.8968 -311.50626,955.07439 -311.65721,955.31412 L -311.67497,955.31412 C -311.86143,954.83465 -312.30538,954.515 -312.87364,954.515 C -313.61061,954.515 -314.00129,954.91456 -314.20551,955.25197 L -314.23214,955.25197 L -314.28542,954.61267 L -315.21772,954.61267 C -315.19997,954.9856 -315.18221,955.40291 -315.18221,955.90014 L -315.18221,958.93679 M -307.65579,958.93679 L -306.5903,958.93679 L -306.5903,956.37961 C -306.5903,956.25531 -306.57254,956.131 -306.53702,956.01557 C -306.43047,955.72256 -306.15522,955.40291 -305.74678,955.40291 C -305.24067,955.40291 -305.00094,955.82911 -305.00094,956.43289 L -305.00094,958.93679 L -303.93545,958.93679 L -303.93545,956.3441 C -303.93545,956.21979 -303.91769,956.07772 -303.88217,955.98005 C -303.76674,955.66929 -303.49149,955.40291 -303.11857,955.40291 C -302.5947,955.40291 -302.34609,955.82911 -302.34609,956.54832 L -302.34609,958.93679 L -301.2806,958.93679 L -301.2806,956.38849 C -301.2806,955.00336 -302.00868,954.515 -302.71901,954.515 C -303.08305,954.515 -303.35831,954.6038 -303.60692,954.7725 C -303.80226,954.8968 -303.97984,955.07439 -304.13079,955.31412 L -304.14854,955.31412 C -304.33501,954.83465 -304.77896,954.515 -305.34722,954.515 C -306.08419,954.515 -306.47487,954.91456 -306.67909,955.25197 L -306.70572,955.25197 L -306.759,954.61267 L -307.6913,954.61267 C -307.67355,954.9856 -307.65579,955.40291 -307.65579,955.90014 L -307.65579,958.93679 M -298.22924,959.03446 C -297.13711,959.03446 -296.01835,958.32413 -296.01835,956.73478 C -296.01835,955.42067 -296.87962,954.515 -298.16709,954.515 C -299.47231,954.515 -300.40462,955.38516 -300.40462,956.80581 C -300.40462,958.19983 -299.45455,959.03446 -298.23812,959.03446 L -298.22924,959.03446 M -298.21148,958.24422 C -298.85966,958.24422 -299.27697,957.61381 -299.27697,956.77917 C -299.27697,956.05997 -298.9662,955.30524 -298.19372,955.30524 C -297.44788,955.30524 -297.14599,956.0866 -297.14599,956.76142 C -297.14599,957.64044 -297.58107,958.24422 -298.2026,958.24422 L -298.21148,958.24422 M -295.11753,958.93679 L -294.0254,958.93679 L -294.0254,956.38849 C -294.0254,956.26419 -294.00764,956.131 -293.97213,956.04221 C -293.8567,955.71368 -293.55481,955.40291 -293.11974,955.40291 C -292.52484,955.40291 -292.29398,955.87351 -292.29398,956.49504 L -292.29398,958.93679 L -291.20185,958.93679 L -291.20185,956.37074 C -291.20185,955.00336 -291.98321,954.515 -292.73793,954.515 C -293.45714,954.515 -293.92773,954.92344 -294.12307,955.26085 L -294.14971,955.26085 L -294.20299,954.61267 L -295.15305,954.61267 C -295.13529,954.9856 -295.11753,955.40291 -295.11753,955.90014 L -295.11753,958.93679 M -288.19808,958.93679 L -287.10595,958.93679 L -287.10595,956.69038 C -287.10595,956.57495 -287.09707,956.45953 -287.07931,956.36186 C -286.98164,955.86463 -286.6176,955.5361 -286.10261,955.5361 C -285.96943,955.5361 -285.87176,955.54498 -285.77409,955.56274 L -285.77409,954.54164 C -285.86288,954.52388 -285.92503,954.515 -286.03158,954.515 C -286.50217,954.515 -287.00828,954.82577 -287.22138,955.42955 L -287.24802,955.42955 L -287.29241,954.61267 L -288.2336,954.61267 C -288.20696,954.99447 -288.19808,955.42067 -288.19808,956.00669 L -288.19808,958.93679 M -281.37477,957.08106 C -281.35702,956.98339 -281.33926,956.82357 -281.33926,956.61935 C -281.33926,955.66929 -281.80097,954.515 -283.20387,954.515 C -284.58901,954.515 -285.31709,955.64265 -285.31709,956.84133 C -285.31709,958.16431 -284.49134,959.02558 -283.08844,959.02558 C -282.4669,959.02558 -281.95191,958.91016 -281.57899,958.75033 L -281.73882,958.00449 C -282.07622,958.11992 -282.43139,958.19983 -282.93749,958.19983 C -283.63006,958.19983 -284.24272,957.86242 -284.26936,957.08106 L -281.37477,957.08106 M -284.26936,956.31746 C -284.22496,955.87351 -283.94083,955.26085 -283.26602,955.26085 C -282.53794,955.26085 -282.36035,955.9179 -282.36923,956.31746 L -284.26936,956.31746 M -280.72993,958.7237 C -280.41028,958.90128 -279.93969,959.02558 -279.41582,959.02558 C -278.27042,959.02558 -277.65776,958.45732 -277.65776,957.66708 C -277.66664,957.02779 -278.0218,956.62823 -278.81204,956.35298 C -279.36255,956.14876 -279.56677,956.02445 -279.56677,955.7492 C -279.56677,955.48283 -279.35367,955.28749 -278.96299,955.28749 C -278.58119,955.28749 -278.22602,955.42955 -278.04844,955.5361 L -277.82646,954.7725 C -278.08396,954.63043 -278.50128,954.515 -278.98075,954.515 C -279.98408,954.515 -280.6145,955.10103 -280.6145,955.86463 C -280.6145,956.37961 -280.26821,956.84133 -279.4247,957.12546 C -278.89196,957.3208 -278.71437,957.46286 -278.71437,957.75587 C -278.71437,958.04 -278.92747,958.24422 -279.40694,958.24422 C -279.79762,958.24422 -280.26822,958.07552 -280.50795,957.92458 L -280.72993,958.7237 M -274.85224,959.03446 C -273.76012,959.03446 -272.64135,958.32413 -272.64135,956.73478 C -272.64135,955.42067 -273.50262,954.515 -274.79009,954.515 C -276.09532,954.515 -277.02762,955.38516 -277.02762,956.80581 C -277.02762,958.19983 -276.07756,959.03446 -274.86112,959.03446 L -274.85224,959.03446 M -274.83449,958.24422 C -275.48266,958.24422 -275.89998,957.61381 -275.89998,956.77917 C -275.89998,956.05997 -275.58921,955.30524 -274.81673,955.30524 C -274.07088,955.30524 -273.76899,956.0866 -273.76899,956.76142 C -273.76899,957.64044 -274.20407,958.24422 -274.82561,958.24422 L -274.83449,958.24422 M -271.74054,958.93679 L -270.64841,958.93679 L -270.64841,952.62376 L -271.74054,952.62376 L -271.74054,958.93679 M -265.58011,954.61267 L -266.67224,954.61267 L -266.67224,957.22313 C -266.67224,957.34744 -266.69,957.47174 -266.73439,957.56053 C -266.84094,957.84466 -267.12507,958.14655 -267.56903,958.14655 C -268.14617,958.14655 -268.37702,957.68484 -268.37702,956.96563 L -268.37702,954.61267 L -269.46915,954.61267 L -269.46915,957.1521 C -269.46915,958.56387 -268.74994,959.03446 -267.96859,959.03446 C -267.18723,959.03446 -266.76103,958.59051 -266.57457,958.28862 L -266.54793,958.28862 L -266.49466,958.93679 L -265.54459,958.93679 C -265.56235,958.58163 -265.58011,958.15543 -265.58011,957.64045 L -265.58011,954.61267 M -264.2273,953.80468 L -264.2273,954.61267 L -264.83995,954.61267 L -264.83995,955.42955 L -264.2273,955.42955 L -264.2273,957.45398 C -264.2273,958.02225 -264.12075,958.42181 -263.88101,958.67042 C -263.67679,958.8924 -263.34826,959.02558 -262.93983,959.02558 C -262.60242,959.02558 -262.30941,958.97231 -262.14959,958.91016 L -262.16735,958.0844 C -262.29165,958.11992 -262.3982,958.1288 -262.59354,958.1288 C -263.01086,958.1288 -263.15293,957.86242 -263.15293,957.32968 L -263.15293,955.42955 L -262.11407,955.42955 L -262.11407,954.61267 L -263.15293,954.61267 L -263.15293,953.50279 L -264.2273,953.80468 M -260.19119,958.93679 L -260.19119,954.61267 L -261.28332,954.61267 L -261.28332,958.93679 L -260.19119,958.93679 M -260.73281,953.99114 C -260.35989,953.99114 -260.12016,953.72476 -260.12016,953.40512 C -260.12904,953.06771 -260.35989,952.81022 -260.73281,952.81022 C -261.09686,952.81022 -261.34547,953.06771 -261.34547,953.40512 C -261.34547,953.72476 -261.10574,953.99114 -260.74169,953.99114 L -260.73281,953.99114 M -257.11139,959.03446 C -256.01927,959.03446 -254.9005,958.32413 -254.9005,956.73478 C -254.9005,955.42067 -255.76177,954.515 -257.04924,954.515 C -258.35447,954.515 -259.28677,955.38516 -259.28677,956.80581 C -259.28677,958.19983 -258.33671,959.03446 -257.12027,959.03446 L -257.11139,959.03446 M -257.09364,958.24422 C -257.74181,958.24422 -258.15913,957.61381 -258.15913,956.77917 C -258.15913,956.05997 -257.84836,955.30524 -257.07588,955.30524 C -256.33004,955.30524 -256.02815,956.0866 -256.02815,956.76142 C -256.02815,957.64044 -256.46322,958.24422 -257.08476,958.24422 L -257.09364,958.24422 M -253.99969,958.93679 L -252.90756,958.93679 L -252.90756,956.38849 C -252.90756,956.26419 -252.8898,956.131 -252.85428,956.04221 C -252.73886,955.71368 -252.43697,955.40291 -252.00189,955.40291 C -251.40699,955.40291 -251.17614,955.87351 -251.17614,956.49504 L -251.17614,958.93679 L -250.08401,958.93679 L -250.08401,956.37074 C -250.08401,955.00336 -250.86537,954.515 -251.62009,954.515 C -252.3393,954.515 -252.80989,954.92344 -253.00523,955.26085 L -253.03187,955.26085 L -253.08514,954.61267 L -254.0352,954.61267 C -254.01745,954.9856 -253.99969,955.40291 -253.99969,955.90014 L -253.99969,958.93679 M -249.18486,958.7237 C -248.86521,958.90128 -248.39462,959.02558 -247.87076,959.02558 C -246.72535,959.02558 -246.11269,958.45732 -246.11269,957.66708 C -246.12157,957.02779 -246.47674,956.62823 -247.26698,956.35298 C -247.81748,956.14876 -248.0217,956.02445 -248.0217,955.7492 C -248.0217,955.48283 -247.8086,955.28749 -247.41792,955.28749 C -247.03612,955.28749 -246.68096,955.42955 -246.50337,955.5361 L -246.2814,954.7725 C -246.53889,954.63043 -246.95621,954.515 -247.43568,954.515 C -248.43902,954.515 -249.06943,955.10103 -249.06943,955.86463 C -249.06943,956.37961 -248.72315,956.84133 -247.87963,957.12546 C -247.34689,957.3208 -247.16931,957.46286 -247.16931,957.75587 C -247.16931,958.04 -247.38241,958.24422 -247.86188,958.24422 C -248.25256,958.24422 -248.72315,958.07552 -248.96288,957.92458 L -249.18486,958.7237 M -242.32132,952.78358 C -242.8363,953.50279 -243.39569,954.65707 -243.40457,956.39737 C -243.40457,958.11104 -242.8363,959.2742 -242.32132,959.98453 L -241.53108,959.98453 C -242.09046,959.13213 -242.52554,957.96897 -242.52554,956.39737 C -242.52554,954.79914 -242.09934,953.62709 -241.53108,952.78358 L -242.32132,952.78358 M -240.69839,957.72924 C -240.69839,958.16431 -240.71615,958.64378 -240.7339,958.93679 L -239.8016,958.93679 L -239.74832,958.28862 L -239.73057,958.28862 C -239.4198,958.82136 -238.92257,959.03446 -238.36319,959.03446 C -237.38649,959.03446 -236.40091,958.26198 -236.40091,956.70814 C -236.39203,955.39404 -237.14675,954.515 -238.20336,954.515 C -238.85154,954.515 -239.32213,954.79026 -239.5885,955.20757 L -239.60626,955.20757 L -239.60626,952.62376 L -240.69839,952.62376 L -240.69839,957.72924 M -239.60626,956.45065 C -239.60626,956.3441 -239.5885,956.24643 -239.57074,956.16652 C -239.45531,955.68705 -239.04688,955.3674 -238.60292,955.3674 C -237.87484,955.3674 -237.51079,955.98893 -237.51079,956.75254 C -237.51079,957.63157 -237.92811,958.17319 -238.6118,958.17319 C -239.08239,958.17319 -239.46419,957.85354 -239.57962,957.40959 C -239.59738,957.32968 -239.60626,957.24089 -239.60626,957.1521 L -239.60626,956.45065 M -236.01078,954.61267 L -234.42142,958.58163 C -234.37702,958.68818 -234.36814,958.75033 -234.36814,958.79473 C -234.36814,958.848 -234.39478,958.91016 -234.4303,958.99007 C -234.58124,959.28308 -234.82986,959.54057 -235.03408,959.67376 C -235.25605,959.83358 -235.47803,959.93125 -235.66449,959.97565 L -235.41588,960.89019 C -235.14951,960.85468 -234.70555,960.71261 -234.27047,960.33969 C -233.76437,959.89574 -233.36481,959.17653 -232.76991,957.56053 L -231.68666,954.61267 L -232.84982,954.61267 L -233.52463,956.92124 C -233.61342,957.19649 -233.69333,957.52502 -233.75549,957.76475 L -233.78212,957.76475 C -233.84428,957.52502 -233.94195,957.19649 -234.03074,956.93012 L -234.80322,954.61267 L -236.01078,954.61267 M -229.21799,960.69485 L -228.12586,960.69485 L -228.12586,958.45732 L -228.1081,958.45732 C -227.88612,958.80361 -227.43329,959.03446 -226.89166,959.03446 C -225.90609,959.03446 -224.92051,958.27974 -224.92051,956.71702 C -224.92051,955.3674 -225.74626,954.515 -226.74072,954.515 C -227.39777,954.515 -227.90388,954.79026 -228.22353,955.27861 L -228.24129,955.27861 L -228.29456,954.61267 L -229.2535,954.61267 C -229.23575,955.02111 -229.21799,955.48283 -229.21799,956.05109 L -229.21799,960.69485 M -228.12586,956.45953 C -228.12586,956.37074 -228.1081,956.27306 -228.09034,956.18427 C -227.97491,955.7048 -227.5576,955.37628 -227.10476,955.37628 C -226.40332,955.37628 -226.03039,955.99781 -226.03039,956.76142 C -226.03039,957.61381 -226.43883,958.19095 -227.1314,958.19095 C -227.60199,958.19095 -227.98379,957.8713 -228.09922,957.42735 C -228.11698,957.32968 -228.12586,957.23201 -228.12586,957.12546 L -228.12586,956.45953 M -222.92327,958.93679 L -222.92327,954.61267 L -224.0154,954.61267 L -224.0154,958.93679 L -222.92327,958.93679 M -223.46489,953.99114 C -223.09197,953.99114 -222.85224,953.72476 -222.85224,953.40512 C -222.86111,953.06771 -223.09197,952.81022 -223.46489,952.81022 C -223.82894,952.81022 -224.07755,953.06771 -224.07755,953.40512 C -224.07755,953.72476 -223.83781,953.99114 -223.47377,953.99114 L -223.46489,953.99114 M -222.23195,954.61267 L -220.78466,956.7259 L -222.28522,958.93679 L -221.08655,958.93679 L -220.58044,958.07552 C -220.44725,957.83579 -220.31407,957.61381 -220.18976,957.36519 L -220.172,957.36519 C -220.04769,957.60493 -219.92339,957.83579 -219.78132,958.06664 L -219.25745,958.93679 L -218.01438,958.93679 L -219.48831,956.6815 L -218.04102,954.61267 L -219.23082,954.61267 L -219.71029,955.41179 C -219.84347,955.63377 -219.9589,955.85575 -220.09209,956.09548 L -220.10985,956.09548 C -220.23415,955.87351 -220.35846,955.65153 -220.50053,955.42955 L -221.01551,954.61267 L -222.23195,954.61267 M -213.68901,957.08106 C -213.67125,956.98339 -213.65349,956.82357 -213.65349,956.61935 C -213.65349,955.66929 -214.1152,954.515 -215.5181,954.515 C -216.90324,954.515 -217.63132,955.64265 -217.63132,956.84133 C -217.63132,958.16431 -216.80557,959.02558 -215.40267,959.02558 C -214.78114,959.02558 -214.26615,958.91016 -213.89323,958.75033 L -214.05305,958.00449 C -214.39045,958.11992 -214.74562,958.19983 -215.25173,958.19983 C -215.9443,958.19983 -216.55695,957.86242 -216.58359,957.08106 L -213.68901,957.08106 M -216.58359,956.31746 C -216.5392,955.87351 -216.25506,955.26085 -215.58025,955.26085 C -214.85217,955.26085 -214.67459,955.9179 -214.68346,956.31746 L -216.58359,956.31746 M -212.77779,958.93679 L -211.68566,958.93679 L -211.68566,952.62376 L -212.77779,952.62376 L -212.77779,958.93679 M -205.62263,957.99561 C -205.83573,958.0844 -206.11098,958.16431 -206.4839,958.16431 C -207.22974,958.16431 -207.80689,957.6582 -207.80689,956.77029 C -207.81576,955.98006 -207.31853,955.3674 -206.4839,955.3674 C -206.09322,955.3674 -205.83573,955.44731 -205.65814,955.5361 L -205.4628,954.71034 C -205.71142,954.6038 -206.11986,954.515 -206.51942,954.515 C -208.03774,954.515 -208.92565,955.51834 -208.92565,956.81469 C -208.92565,958.15543 -208.04662,959.02558 -206.697,959.02558 C -206.15537,959.02558 -205.70254,958.91016 -205.47168,958.80361 L -205.62263,957.99561 M -202.76162,959.03446 C -201.66949,959.03446 -200.55072,958.32413 -200.55072,956.73478 C -200.55072,955.42067 -201.412,954.515 -202.69946,954.515 C -204.00469,954.515 -204.937,955.38516 -204.937,956.80581 C -204.937,958.19983 -203.98693,959.03446 -202.7705,959.03446 L -202.76162,959.03446 M -202.74386,958.24422 C -203.39203,958.24422 -203.80935,957.61381 -203.80935,956.77917 C -203.80935,956.05997 -203.49858,955.30524 -202.7261,955.30524 C -201.98026,955.30524 -201.67837,956.0866 -201.67837,956.76142 C -201.67837,957.64044 -202.11344,958.24422 -202.73498,958.24422 L -202.74386,958.24422 M -195.77863,954.61267 L -196.87075,954.61267 L -196.87075,957.22313 C -196.87075,957.34744 -196.88851,957.47174 -196.93291,957.56053 C -197.03946,957.84466 -197.32359,958.14655 -197.76754,958.14655 C -198.34468,958.14655 -198.57554,957.68484 -198.57554,956.96563 L -198.57554,954.61267 L -199.66767,954.61267 L -199.66767,957.1521 C -199.66767,958.56387 -198.94846,959.03446 -198.1671,959.03446 C -197.38574,959.03446 -196.95954,958.59051 -196.77308,958.28862 L -196.74645,958.28862 L -196.69317,958.93679 L -195.74311,958.93679 C -195.76087,958.58163 -195.77863,958.15543 -195.77863,957.64045 L -195.77863,954.61267 M -194.60339,958.93679 L -193.51126,958.93679 L -193.51126,956.38849 C -193.51126,956.26419 -193.4935,956.131 -193.45798,956.04221 C -193.34256,955.71368 -193.04067,955.40291 -192.60559,955.40291 C -192.01069,955.40291 -191.77983,955.87351 -191.77983,956.49504 L -191.77983,958.93679 L -190.68771,958.93679 L -190.68771,956.37074 C -190.68771,955.00336 -191.46907,954.515 -192.22379,954.515 C -192.943,954.515 -193.41359,954.92344 -193.60893,955.26085 L -193.63557,955.26085 L -193.68884,954.61267 L -194.6389,954.61267 C -194.62115,954.9856 -194.60339,955.40291 -194.60339,955.90014 L -194.60339,958.93679 M -189.34461,953.80468 L -189.34461,954.61267 L -189.95727,954.61267 L -189.95727,955.42955 L -189.34461,955.42955 L -189.34461,957.45398 C -189.34461,958.02225 -189.23806,958.42181 -188.99833,958.67042 C -188.79411,958.8924 -188.46558,959.02558 -188.05714,959.02558 C -187.71974,959.02558 -187.42673,958.97231 -187.2669,958.91016 L -187.28466,958.0844 C -187.40897,958.11992 -187.51552,958.1288 -187.71086,958.1288 C -188.12818,958.1288 -188.27024,957.86242 -188.27024,957.32968 L -188.27024,955.42955 L -187.23139,955.42955 L -187.23139,954.61267 L -188.27024,954.61267 L -188.27024,953.50279 L -189.34461,953.80468 M -185.94779,959.98453 C -185.43281,959.25644 -184.87342,958.11104 -184.86454,956.37961 C -184.86454,954.63931 -185.43281,953.48503 -185.94779,952.78358 L -186.73803,952.78358 C -186.17865,953.63597 -185.74358,954.79914 -185.74358,956.37961 C -185.74358,957.96009 -186.17865,959.14101 -186.73803,959.98453 L -185.94779,959.98453 M -324.584,967.78638 L -323.87,967.78638 L -323.87,963.88638 L -324.482,963.88638 L -325.436,964.35438 L -325.31,964.91238 L -324.596,964.55238 L -324.584,964.55238 L -324.584,967.78638 M -322.03306,965.83038 C -321.75706,965.83038 -321.57706,965.62638 -321.57706,965.36238 C -321.57706,965.08038 -321.75706,964.88838 -322.02706,964.88838 C -322.29706,964.88838 -322.48306,965.08638 -322.48306,965.36238 C -322.48306,965.62638 -322.29706,965.83038 -322.03906,965.83038 L -322.03306,965.83038 M -322.03306,967.85238 C -321.75706,967.85238 -321.57706,967.64838 -321.57706,967.38438 C -321.57706,967.10238 -321.75706,966.91038 -322.02706,966.91038 C -322.29706,966.91038 -322.48306,967.10838 -322.48306,967.38438 C -322.48306,967.64838 -322.29706,967.85238 -322.03906,967.85238 L -322.03306,967.85238 M -319.95509,967.78638 L -319.24109,967.78638 L -319.24109,963.88638 L -319.85309,963.88638 L -320.80709,964.35438 L -320.68109,964.91238 L -319.96709,964.55238 L -319.95509,964.55238 L -319.95509,967.78638 M -316.49197,967.78638 L -315.75997,967.78638 L -315.75997,966.25638 C -315.65797,966.28038 -315.53797,966.28638 -315.39997,966.28638 C -314.87797,966.28638 -314.42197,966.14238 -314.12197,965.84838 C -313.89997,965.63238 -313.77997,965.32038 -313.77997,964.93638 C -313.77997,964.55838 -313.93597,964.24038 -314.17597,964.04238 C -314.43397,963.82638 -314.82397,963.71238 -315.36397,963.71238 C -315.85597,963.71238 -316.22197,963.74838 -316.49197,963.79638 L -316.49197,967.78638 M -315.75997,964.31838 C -315.68197,964.30038 -315.53797,964.28238 -315.33397,964.28238 C -314.82397,964.28238 -314.51197,964.52238 -314.51197,964.96638 C -314.51197,965.43438 -314.84797,965.71038 -315.39997,965.71038 C -315.54997,965.71038 -315.66397,965.70438 -315.75997,965.67438 L -315.75997,964.31838 M -311.04641,966.64038 L -310.68041,967.78638 L -309.88841,967.78638 L -311.20241,963.74238 L -312.14441,963.74238 L -313.44041,967.78638 L -312.67841,967.78638 L -312.33041,966.64038 L -311.04641,966.64038 M -312.21041,966.08238 L -311.89841,965.08638 C -311.82641,964.84638 -311.76641,964.56438 -311.70641,964.33038 L -311.69441,964.33038 C -311.63441,964.56438 -311.56841,964.84038 -311.49041,965.08638 L -311.17241,966.08238 L -312.21041,966.08238 M -309.32009,967.78638 L -308.58809,967.78638 L -308.58809,966.12438 L -308.21609,966.12438 C -307.79609,966.13638 -307.61009,966.30438 -307.49009,966.83238 C -307.38209,967.33638 -307.28009,967.66638 -307.22009,967.78638 L -306.46409,967.78638 C -306.54209,967.63038 -306.65009,967.16238 -306.78209,966.65838 C -306.87809,966.26838 -307.05209,965.98638 -307.34609,965.87838 L -307.34609,965.86038 C -306.96209,965.72838 -306.60809,965.37438 -306.60809,964.85238 C -306.60809,964.50438 -306.73409,964.22238 -306.95609,964.03638 C -307.23209,963.80838 -307.62209,963.71238 -308.20409,963.71238 C -308.63009,963.71238 -309.03809,963.74838 -309.32009,963.80238 L -309.32009,967.78638 M -308.58809,964.30638 C -308.51609,964.28838 -308.36609,964.27038 -308.13209,964.27038 C -307.65209,964.27038 -307.34609,964.48038 -307.34609,964.91838 C -307.34609,965.32038 -307.65209,965.58438 -308.15009,965.58438 L -308.58809,965.58438 L -308.58809,964.30638"
     id="flowRoot4217" />
</svg>
